<svg version="1.1" baseProfile="tiny" id="Layer_1" xmlns="http://www.w3.org/2000/svg" xmlns:xlink="http://www.w3.org/1999/xlink"
	 x="0px" y="0px" viewBox="0 0 640 640" xml:space="preserve">
<path fill="#231F20" d="M583.1,21.3v476.4c0,27.4-22.3,49.8-49.8,49.8H391.1c-30.1,0-54.7,11-71.1,31.4
	c-16.4-20.4-41-31.4-71.1-31.4H106.7c-27.4,0-49.8-22.3-49.8-49.8V21.3H583.1 M604.4,0H35.6v497.8c0,39.1,32,71.1,71.1,71.1
	c0,0,103.1,0,142.2,0C320,568.9,320,640,320,640s0-71.1,71.1-71.1h142.2c39.1,0,71.1-32,71.1-71.1V0L604.4,0z"/>
<path fill="#231F20" d="M547.6,56.9v440.9c0,7.7-6.5,14.2-14.2,14.2H391.1c-31.1,0-55,6.3-71.1,18.6c-16.1-12.4-40-18.6-71.1-18.6
	H106.7c-7.7,0-14.2-6.5-14.2-14.2V56.9H547.6 M568.9,35.6H71.1v462.2c0,19.6,16,35.6,35.6,35.6c0,0,96,0,142.2,0
	c71.1,0,71.1,35.6,71.1,35.6s0-35.6,71.1-35.6h142.2c19.6,0,35.6-16,35.6-35.6V35.6L568.9,35.6z"/>
<g>
	<path d="M223.1,366.2h31.5V202.6h-31.5v-24.9H323c51.1,0,85.1,25.2,85.1,65.2c0,28.7-17.2,50.1-46.9,58.5l36.1,64.8h29.4v24.9
		h-50.4L331,309.5h-45.5v56.7h31.2v24.9h-93.5V366.2z M323.7,285.3c37.8,0,53.2-17.5,53.2-41.3s-15.8-41.3-53.2-41.3h-38.2v82.7
		H323.7z"/>
</g>
<g>
	<path fill="#231F20" d="M71.1,86.2l63.6,63.6c2.1,2.1,4.8,3.1,7.5,3.1s5.5-1,7.5-3.1c4.2-4.2,4.2-10.9,0-15.1L78.7,63.6
		c-2.1-2.1-4.8-3.1-7.5-3.1V86.2z"/>
	<path fill="#231F20" d="M149.8,419.1c-4.2-4.2-10.9-4.2-15.1,0l-63.6,63.6v15.1c0,3.7,0.6,7.2,1.6,10.5c2.2-0.3,4.3-1.3,5.9-3
		l71.1-71.1C153.9,430,153.9,423.3,149.8,419.1z"/>
	<path fill="#231F20" d="M106.7,533.3c0,0,5.7,0,15.1,0l63.6-63.6c4.2-4.2,4.2-10.9,0-15.1c-4.2-4.2-10.9-4.2-15.1,0l-71.1,71.1
		c-1.7,1.7-2.7,3.8-3,5.9C99.5,532.8,103,533.3,106.7,533.3z"/>
	<path fill="#231F20" d="M170.2,114.2c2.1,2.1,4.8,3.1,7.5,3.1s5.5-1,7.5-3.1c4.2-4.2,4.2-10.9,0-15.1l-63.6-63.6H96
		c0,2.7,1,5.5,3.1,7.5L170.2,114.2z"/>
	<path fill="#231F20" d="M454.7,99.1c-4.2,4.2-4.2,10.9,0,15.1c2.1,2.1,4.8,3.1,7.5,3.1s5.5-1,7.5-3.1l71.1-71.1
		c2.1-2.1,3.1-4.8,3.1-7.5h-25.8L454.7,99.1z"/>
	<path fill="#231F20" d="M543.9,531.7c-0.3-2.2-1.3-4.3-3-5.9l-71.1-71.1c-4.2-4.2-10.9-4.2-15.1,0c-4.2,4.2-4.2,10.9,0,15.1
		l63.6,63.6h15.1C537,533.3,540.5,532.8,543.9,531.7z"/>
	<path fill="#231F20" d="M490.2,149.8c2.1,2.1,4.8,3.1,7.5,3.1s5.5-1,7.5-3.1l63.6-63.6V60.4c-2.7,0-5.5,1-7.5,3.1l-71.1,71.1
		C486.1,138.8,486.1,145.6,490.2,149.8z"/>
	<path fill="#231F20" d="M568.9,482.7l-63.6-63.6c-4.2-4.2-10.9-4.2-15.1,0c-4.2,4.2-4.2,10.9,0,15.1l71.1,71.1
		c1.7,1.7,3.8,2.7,5.9,3c1-3.3,1.6-6.9,1.6-10.5V482.7z"/>
</g>
<line fill="none" stroke="#231F20" stroke-width="12" stroke-miterlimit="10" x1="35.6" y1="284.4" x2="71.1" y2="284.4"/>
<line fill="none" stroke="#231F20" stroke-width="12" stroke-miterlimit="10" x1="568.9" y1="284.4" x2="604.4" y2="284.4"/>
</svg>
